<svg height="512pt" viewBox="0 -61 512 512" width="512pt" xmlns="http://www.w3.org/2000/svg"><path d="m150 240v-150h-75c-41.351562 0-75 33.648438-75 75s33.648438 75 75 75zm0 0"/><path d="m180 245.78125 91 30.160156v-221.882812l-91 30.160156zm0 0"/><path d="m331 34.167969-30 9.941406v241.78125l30 9.941406v34.167969h30v-330h-30zm0 0"/><path d="m391 219.269531 30-15v-78.539062l-30-15zm0 0"/><path d="m150 270h-75c-5.089844 0-10.101562-.359375-15-1.078125v121.078125h120v-51.210938l-30-30zm0 0"/><path d="m451 151h61v30h-61zm0 0"/><path d="m487.683594 62.539062 16.640625 24.964844-45.003907 30-16.640624-24.964844zm0 0"/><path d="m487.65625 267.46875-45-30 16.640625-24.964844 45 30zm0 0"/></svg>