<?xml version="1.0" standalone="no"?>
<!DOCTYPE svg PUBLIC "-//W3C//DTD SVG 20010904//EN"
 "http://www.w3.org/TR/2001/REC-SVG-20010904/DTD/svg10.dtd">
<svg version="1.0" xmlns="http://www.w3.org/2000/svg"
 width="200.000000pt" height="200.000000pt" viewBox="0 0 200.000000 200.000000"
 preserveAspectRatio="xMidYMid meet">
<metadata>
Created by potrace 1.11, written by Peter Selinger 2001-2013
</metadata>
<g transform="translate(0.000000,200.000000) scale(0.100000,-0.100000)"
fill="#000000" stroke="none">
<path d="M295 1479 c-4 -12 -2 -26 4 -32 6 -6 61 -10 131 -11 108 -1 123 1
132 17 20 38 -5 47 -138 47 -116 0 -123 -1 -129 -21z"/>
<path d="M1441 1486 c-14 -17 -5 -43 17 -48 29 -6 229 -1 241 6 16 10 13 43
-5 50 -9 3 -66 6 -129 6 -83 0 -116 -4 -124 -14z"/>
<path d="M733 1399 c-76 -14 -149 -65 -203 -144 l-29 -42 -96 0 c-101 0 -121
-7 -110 -42 6 -19 14 -21 91 -21 46 0 84 -4 84 -9 0 -4 -5 -22 -11 -39 -10
-30 -12 -31 -81 -34 -56 -2 -73 -7 -82 -21 -17 -27 12 -43 75 -42 30 1 57 -4
62 -9 5 -8 9 -8 15 -1 4 6 25 10 47 10 51 -1 62 3 69 22 10 25 -13 43 -55 43
-44 0 -44 -1 -25 45 12 29 20 35 44 35 31 0 46 19 36 44 -3 8 -12 16 -20 18
-23 5 40 75 89 100 23 11 65 22 92 24 132 7 221 -98 254 -301 10 -60 7 -263
-4 -340 -7 -51 -36 -188 -40 -196 -2 -3 -58 -6 -124 -6 -66 -1 -125 -4 -130
-8 -17 -10 -13 -42 5 -49 9 -3 63 -6 120 -6 96 0 104 -1 104 -19 0 -33 15 -32
52 2 19 18 67 61 106 97 l71 65 85 -1 c64 -1 89 3 98 13 18 23 -3 48 -43 50
-19 0 -40 1 -48 2 -7 1 35 51 94 112 l107 112 131 1 c111 1 131 3 141 18 20
33 -7 42 -119 43 -58 0 -105 1 -105 2 0 8 35 73 39 74 3 1 43 2 89 3 89 2 115
14 96 44 -9 13 -28 18 -84 20 -69 3 -72 4 -66 25 3 12 6 30 6 39 0 14 12 18
72 20 55 2 73 7 75 18 6 31 -14 42 -75 42 l-60 0 -7 35 c-3 19 -4 38 -1 41 4
3 32 4 64 3 66 -3 95 16 75 47 -8 14 -28 17 -102 18 -68 1 -96 5 -109 17 -9 9
-36 20 -59 25 -34 8 -46 6 -70 -9 -32 -21 -83 -86 -83 -106 0 -19 5 -17 38 17
33 32 54 36 90 16 45 -25 82 -106 48 -106 -8 0 -16 -7 -20 -15 -9 -23 4 -45
26 -45 18 0 20 -5 15 -35 -3 -20 -16 -44 -29 -55 -20 -16 -21 -22 -11 -39 9
-15 10 -28 3 -47 -23 -59 -107 -173 -188 -254 -79 -79 -90 -86 -122 -84 -52 4
-80 -5 -80 -27 0 -10 8 -23 18 -29 15 -9 14 -13 -17 -40 -19 -16 -36 -28 -38
-27 -1 2 2 19 7 39 47 168 63 437 34 573 -42 203 -159 302 -321 274z"/>
<path d="M298 1342 c-9 -10 -9 -19 -1 -30 8 -14 30 -17 132 -19 113 -1 122 0
132 19 19 36 -3 43 -132 43 -90 1 -123 -3 -131 -13z"/>
<path d="M682 1058 c-17 -17 -15 -36 6 -46 9 -5 68 -8 129 -7 120 1 147 10
127 43 -9 14 -30 17 -130 20 -84 2 -123 -1 -132 -10z"/>
<path d="M311 918 c-23 -8 -27 -28 -9 -46 17 -17 244 -17 255 1 12 19 12 36 0
44 -16 10 -220 11 -246 1z"/>
<path d="M681 913 c-12 -9 -14 -16 -5 -30 10 -15 28 -18 131 -21 101 -2 122 0
133 14 10 11 11 20 4 32 -9 13 -31 16 -129 17 -77 0 -123 -4 -134 -12z"/>
<path d="M333 782 c-34 -3 -54 -35 -35 -54 8 -8 152 -14 238 -9 24 1 37 23 28
45 -4 11 -30 15 -102 18 -53 2 -111 2 -129 0z"/>
<path d="M733 782 c-42 -2 -53 -7 -58 -24 -12 -35 9 -41 135 -42 95 0 123 3
131 15 11 17 11 21 1 36 -8 13 -117 20 -209 15z"/>
<path d="M1478 782 c-32 -4 -51 -24 -42 -46 7 -18 1 -17 143 -19 113 -2 138 6
127 41 -7 19 -15 22 -69 23 -34 0 -78 1 -97 2 -19 1 -47 1 -62 -1z"/>
<path d="M298 623 c-8 -11 -9 -19 -1 -31 8 -14 29 -17 124 -18 117 -1 149 6
149 31 0 25 -33 33 -148 32 -84 0 -115 -4 -124 -14z"/>
<path d="M678 623 c-8 -10 -9 -19 -1 -31 8 -14 29 -17 127 -18 128 0 160 9
140 43 -10 16 -27 18 -132 20 -96 1 -124 -2 -134 -14z"/>
<path d="M1443 625 c-14 -11 -16 -18 -7 -32 10 -16 26 -18 134 -18 105 0 124
2 134 17 21 33 -7 43 -129 44 -82 2 -119 -2 -132 -11z"/>
<path d="M324 490 c-31 -6 -45 -37 -22 -51 7 -5 65 -9 129 -9 125 0 151 9 131
46 -8 14 -26 17 -109 18 -55 1 -112 -1 -129 -4z"/>
<path d="M1088 492 c-30 -4 -44 -28 -27 -49 9 -10 39 -13 132 -11 101 3 122 6
131 20 19 31 -6 41 -111 42 -54 1 -110 0 -125 -2z"/>
<path d="M1463 492 c-26 -4 -38 -29 -22 -48 8 -10 41 -14 124 -14 63 0 120 3
129 6 18 7 21 40 5 50 -12 7 -195 12 -236 6z"/>
</g>
</svg>
